# xmcd CD database file
#
# Track frame offsets:
#	150
#	11087
#	21695
#	37022
#	47002
#	57325
#	71172
#	83752
#	95527
#	108520
#	123085
#	135312
#	146450
#	158880
#	169647
#	182747
#
# Disc length: 2589 seconds
#
# Revision: 3
# Processed by: cddbd v1.5.2PL0 Copyright (c) Steve Scherf et al.
# Submitted via: CDex 1.86
#
DISCID=da0a1b10
DTITLE=Various Artist - Country Music Collection Vol. 2
DYEAR=1993
DGENRE=Country
TTITLE0=Hank Locklin - Send Me The Pillow
TTITLE1=Ricky Nelson - Travelin' Ma
TTITLE2=Kenny Rogers - For The Good Times
TTITLE3=Lynn Anderson - What A Man My Man Is
TTITLE4=Loretta Lynn - You're Looking At Country (Live)
TTITLE5=Willie Nelson - Home Is Where You're Happy
TTITLE6=Carl Perkins - Take Me Back
TTITLE7=Charlie Pride - Kaw Liga (Live)
TTITLE8=George Jones - Things Have Gone To Pieces
TTITLE9=Anne Murray - A Song For David
TTITLE10=Susan Raye - L.A. International Airpor
TTITLE11=Brenda Lee - That's All You Gotta Do (Live)
TTITLE12=Jeanne Pruett - Satin Sheets
TTITLE13=Johnny Cash - Rock Island Line
TTITLE14=Patsy Cline - Walkin' After Midnight
TTITLE15=Brenda Lee - Silver Threads (And Golden Needles)
EXTD=YEAR: 1993
EXTT0=
EXTT1=
EXTT2=
EXTT3=
EXTT4=
EXTT5=
EXTT6=
EXTT7=
EXTT8=
EXTT9=
EXTT10=
EXTT11=
EXTT12=
EXTT13=
EXTT14=
EXTT15=
PLAYORDER=
